<svg width="229" height="243" viewBox="0 0 229 243" fill="none" xmlns="http://www.w3.org/2000/svg">
<line x1="77.8283" y1="133.692" x2="79.8287" y2="173.109" stroke="#343536" stroke-width="2"/>
<line x1="63.7991" y1="134.568" x2="66.3793" y2="167.158" stroke="#343536" stroke-width="2"/>
<line x1="54.7099" y1="172.796" x2="76.011" y2="167.088" stroke="#343536" stroke-width="2"/>
<line x1="59.0528" y1="180.341" x2="70.2256" y2="168.786" stroke="#343536" stroke-width="2"/>
<line x1="55.766" y1="164.099" x2="71.2195" y2="168.52" stroke="#343536" stroke-width="2"/>
<line x1="68.4489" y1="177.78" x2="81.0486" y2="171.55" stroke="#343536" stroke-width="2"/>
<line x1="75.4507" y1="184.817" x2="84.4831" y2="165.274" stroke="#343536" stroke-width="2"/>
<line x1="86.1119" y1="182.826" x2="79.882" y2="170.227" stroke="#343536" stroke-width="2"/>
<path d="M160.803 37.1172L157.47 13.7474C157.47 13.7474 98.2229 56.7969 82.9504 59.9188C81.0752 34.7025 56.9383 33.8912 48.9531 35.0602C40.9679 36.2292 33.77 43.9812 33.77 43.9812C33.77 43.9812 19.5082 43.5882 6.42149 47.5802C32.7411 48.8655 31.8555 60.7518 32.794 69.7202C33.7326 78.6885 26.1515 99.3524 40.7865 117.534C55.4216 135.716 77.2491 142.485 87.116 144.693C96.9829 146.902 115.835 153.497 127.49 167.843C139.144 182.19 160.302 215.572 160.302 215.572L179.464 179.635C179.464 179.635 139.031 152.619 128.896 133.013C118.761 113.407 114.703 109.81 127.019 107.79C139.335 105.771 167.159 108.203 167.159 108.203C167.159 108.203 190.673 45.6125 184.894 34.5442C164.594 53.0856 119.987 74.2578 97.7017 74.8913" stroke="#343536" stroke-width="2" stroke-miterlimit="10"/>
<path d="M69.8867 59.9484C64.3736 54.4353 60.2388 45.2854 48.022 50.2209C45.4844 51.2462 43.3925 53.1722 42.1099 55.6645C40.8273 58.1568 40.435 61.0578 41.0012 63.8634C42.4402 70.8012 50.3235 74.7655 55.5812 73.3567C60.8389 71.9479 64.0004 68.1708 67.7084 68.6903C74.7871 69.6822 80.913 72.3529 87.692 70.8399C87.9105 70.9103 88.1438 70.901 88.353 70.8134C88.5622 70.7259 88.7344 70.5655 88.8408 70.3592C88.9472 70.1528 88.9813 69.9131 88.9374 69.6801C88.8935 69.4471 88.7743 69.2351 88.5997 69.0796C79.9198 69.0796 75.3998 65.4615 69.8867 59.9484Z" fill="#33DE72"/>
<path d="M54.2788 66.2874C57.5875 65.4008 59.551 61.9999 58.6645 58.6912C57.7779 55.3825 54.377 53.419 51.0683 54.3055C47.7596 55.1921 45.7961 58.593 46.6827 61.9017C47.5692 65.2104 50.9701 67.1739 54.2788 66.2874Z" fill="#343536"/>
</svg>
