<svg width="32" height="16" viewBox="0 0 32 16" fill="none" xmlns="http://www.w3.org/2000/svg">
<path d="M31.7071 8.70711C32.0976 8.31658 32.0976 7.68342 31.7071 7.29289L25.3431 0.928932C24.9526 0.538408 24.3195 0.538408 23.9289 0.928932C23.5384 1.31946 23.5384 1.95262 23.9289 2.34315L29.5858 8L23.9289 13.6569C23.5384 14.0474 23.5384 14.6805 23.9289 15.0711C24.3195 15.4616 24.9526 15.4616 25.3431 15.0711L31.7071 8.70711ZM0 9H0.96875V7H0V9ZM2.90625 9H4.84375V7H2.90625V9ZM6.78125 9H8.71875V7H6.78125V9ZM10.6562 9H12.5938V7H10.6562V9ZM14.5312 9H16.4688V7H14.5312V9ZM18.4062 9H20.3438V7H18.4062V9ZM22.2812 9H24.2188V7H22.2812V9ZM26.1562 9H28.0938V7H26.1562V9ZM30.0312 9H31V7H30.0312V9Z" fill="#CCCDCE"/>
</svg>
