<svg width="211" height="32" viewBox="0 0 211 32" fill="none" xmlns="http://www.w3.org/2000/svg">
<path d="M206.785 31.9883C207.883 32.1073 208.869 31.3136 208.988 30.2155L210.928 12.3203C211.047 11.2221 210.253 10.2354 209.155 10.1164C208.057 9.99738 207.07 10.7911 206.951 11.8892L205.227 27.7961L189.32 26.0721C188.222 25.953 187.235 26.7468 187.116 27.8449C186.997 28.9431 187.791 29.9298 188.889 30.0488L206.785 31.9883ZM3.8344 30.7968C4.40116 29.4921 5.61219 28.0353 7.60418 26.483C9.57898 24.9441 12.2038 23.4023 15.4167 21.8901C21.8419 18.8658 30.4125 16.0551 40.3265 13.6252C60.1437 8.76792 85.0589 5.4966 108.302 4.9995L108.216 1.00041C84.7002 1.50336 59.4932 4.80895 39.3743 9.74016C29.3203 12.2044 20.4693 15.0909 13.7132 18.2709C10.3354 19.8608 7.42957 21.548 5.14549 23.3279C2.8786 25.0944 1.10251 27.0463 0.165599 29.2031L3.8344 30.7968ZM108.302 4.9995C131.419 4.5051 154.002 8.87165 171.737 14.5256C180.602 17.3517 188.222 20.4888 194.064 23.4782C199.993 26.5116 203.847 29.2712 205.442 31.2535L208.558 28.7464C206.394 26.0557 201.87 22.9787 195.886 19.9172C189.816 16.8115 181.988 13.5953 172.952 10.7146C154.886 4.95514 131.859 0.494771 108.216 1.00041L108.302 4.9995Z" fill="url(#paint0_linear_264_242)"/>
<defs>
<linearGradient id="paint0_linear_264_242" x1="152" y1="3.00003" x2="-3.5" y2="21" gradientUnits="userSpaceOnUse">
<stop stop-color="#33DE72"/>
<stop offset="1" stop-color="#33DE72" stop-opacity="0"/>
</linearGradient>
</defs>
</svg>
