<svg width="88" height="88" viewBox="0 0 88 88" fill="none" xmlns="http://www.w3.org/2000/svg">
<line x1="33.0174" y1="48.2197" x2="33.7431" y2="62.5191" stroke="#343536" stroke-width="2"/>
<line x1="27.9272" y1="48.5196" x2="28.8632" y2="60.3424" stroke="#343536" stroke-width="2"/>
<line x1="23.8297" y1="61.8224" x2="31.5571" y2="59.7519" stroke="#343536" stroke-width="2"/>
<line x1="25.1119" y1="64.7322" x2="29.1651" y2="60.5404" stroke="#343536" stroke-width="2"/>
<line x1="24.553" y1="58.6704" x2="30.1591" y2="60.2741" stroke="#343536" stroke-width="2"/>
<line x1="28.6963" y1="63.6746" x2="33.2671" y2="61.4146" stroke="#343536" stroke-width="2"/>
<line x1="30.94" y1="66.5316" x2="34.2168" y2="59.442" stroke="#343536" stroke-width="2"/>
<line x1="34.8151" y1="66.3591" x2="32.5551" y2="61.7883" stroke="#343536" stroke-width="2"/>
<path d="M62.482 13.2175L61.273 4.73957C61.273 4.73957 39.7797 20.3567 34.2393 21.4893C33.5591 12.3415 24.8029 12.0472 21.9061 12.4713C19.0093 12.8953 16.3981 15.7076 16.3981 15.7076C16.3981 15.7076 11.2243 15.565 6.4768 17.0132C16.0248 17.4795 15.7035 21.7914 16.044 25.0449C16.3845 28.2984 13.6343 35.7947 18.9435 42.3906C24.2526 48.9865 32.171 51.4418 35.7505 52.243C39.3299 53.0443 46.169 55.4367 50.3969 60.6412C54.6248 65.8457 62.3002 77.956 62.3002 77.956L69.2519 64.9191C69.2519 64.9191 54.5838 55.1184 50.9072 48.0058C47.2305 40.8932 45.7584 39.5884 50.2263 38.8557C54.6941 38.123 64.7876 39.0054 64.7876 39.0054C64.7876 39.0054 73.3179 16.2993 71.2215 12.2841C63.8572 19.0104 47.6751 26.691 39.5907 26.9209" stroke="#343536" stroke-width="2" stroke-miterlimit="10"/>
<path d="M29.5001 21.5C27.5001 19.5 26.0001 16.1807 21.5682 17.9712C20.6476 18.3431 19.8887 19.0418 19.4234 19.9459C18.9581 20.8501 18.8158 21.9024 19.0212 22.9203C19.5432 25.4371 22.4031 26.8752 24.3104 26.3641C26.2178 25.8531 27.3647 24.4829 28.7098 24.6713C31.2778 25.0311 33.5001 26 35.9593 25.4511C36.0386 25.4767 36.1232 25.4733 36.1991 25.4415C36.275 25.4098 36.3375 25.3516 36.3761 25.2767C36.4147 25.2019 36.427 25.1149 36.4111 25.0304C36.3952 24.9459 36.3519 24.869 36.2886 24.8126C33.1398 24.8126 31.5001 23.5 29.5001 21.5Z" fill="#33DE72"/>
<path d="M23.838 23.7996C25.0383 23.478 25.7506 22.2442 25.429 21.0439C25.1074 19.8436 23.8736 19.1313 22.6733 19.4529C21.473 19.7746 20.7607 21.0083 21.0823 22.2086C21.404 23.4089 22.6377 24.1212 23.838 23.7996Z" fill="#343536"/>
</svg>
