<svg width="88" height="88" viewBox="0 0 88 88" fill="none" xmlns="http://www.w3.org/2000/svg">
<line x1="33.0173" y1="48.2197" x2="33.743" y2="62.5191" stroke="#343536" stroke-width="2"/>
<line x1="27.9271" y1="48.5196" x2="28.8631" y2="60.3424" stroke="#343536" stroke-width="2"/>
<line x1="23.8296" y1="61.8224" x2="31.557" y2="59.7519" stroke="#343536" stroke-width="2"/>
<line x1="25.1119" y1="64.7322" x2="29.1651" y2="60.5404" stroke="#343536" stroke-width="2"/>
<line x1="24.5529" y1="58.6704" x2="30.159" y2="60.2741" stroke="#343536" stroke-width="2"/>
<line x1="28.6962" y1="63.6746" x2="33.267" y2="61.4146" stroke="#343536" stroke-width="2"/>
<line x1="30.94" y1="66.5316" x2="34.2167" y2="59.442" stroke="#343536" stroke-width="2"/>
<line x1="34.815" y1="66.3591" x2="32.555" y2="61.7883" stroke="#343536" stroke-width="2"/>
<path d="M62.482 13.2175L61.2729 4.73957C61.2729 4.73957 39.7797 20.3567 34.2393 21.4893C33.559 12.3415 24.8028 12.0472 21.906 12.4713C19.0092 12.8953 16.398 15.7076 16.398 15.7076C16.398 15.7076 11.2242 15.565 6.47674 17.0132C16.0247 17.4795 15.7035 21.7914 16.044 25.0449C16.3844 28.2984 13.6342 35.7947 18.9434 42.3906C24.2526 48.9865 32.171 51.4418 35.7504 52.243C39.3298 53.0443 46.1689 55.4367 50.3968 60.6412C54.6247 65.8457 62.3001 77.956 62.3001 77.956L69.2518 64.9191C69.2518 64.9191 54.5838 55.1184 50.9071 48.0058C47.2304 40.8932 45.7584 39.5884 50.2262 38.8557C54.694 38.123 64.7876 39.0054 64.7876 39.0054C64.7876 39.0054 73.3179 16.2993 71.2214 12.2841C63.8571 19.0104 47.6751 26.691 39.5906 26.9209" stroke="#343536" stroke-width="2" stroke-miterlimit="10"/>
<path d="M29.5 21.5C27.5 19.5 26 16.1807 21.5681 17.9712C20.6475 18.3431 19.8886 19.0418 19.4233 19.9459C18.958 20.8501 18.8157 21.9024 19.0211 22.9203C19.5432 25.4371 22.403 26.8752 24.3103 26.3641C26.2177 25.8531 27.3646 24.4829 28.7097 24.6713C31.2777 25.0311 33.5 26 35.9592 25.4511C36.0385 25.4767 36.1232 25.4733 36.199 25.4415C36.2749 25.4098 36.3374 25.3516 36.376 25.2767C36.4146 25.2019 36.427 25.1149 36.411 25.0304C36.3951 24.9459 36.3519 24.869 36.2885 24.8126C33.1397 24.8126 31.5 23.5 29.5 21.5Z" fill="#33DE72"/>
<path d="M23.7325 23.7492C24.7129 23.4865 25.3007 22.4814 25.0377 21.4999C24.7747 20.5183 23.7631 19.9418 22.7827 20.2045C21.8024 20.4672 21.2146 21.4722 21.4776 22.4538C21.7406 23.4353 22.7522 24.0118 23.7325 23.7492Z" fill="white" stroke="#343536" stroke-miterlimit="10"/>
</svg>
