<svg width="228" height="57" viewBox="0 0 228 57" fill="none" xmlns="http://www.w3.org/2000/svg">
<path d="M226.005 51.9352C227.074 51.6564 227.714 50.564 227.435 49.4952L222.892 32.078C222.613 31.0092 221.52 30.3688 220.452 30.6477C219.383 30.9265 218.742 32.0189 219.021 33.0877L223.06 48.5696L207.578 52.6084C206.509 52.8872 205.869 53.9796 206.148 55.0484C206.426 56.1172 207.519 56.7576 208.588 56.4788L226.005 51.9352ZM3.52858 45.7897C16.674 30.21 51.6276 4 110 4V0C50.3724 0 14.326 26.79 0.471417 43.2103L3.52858 45.7897ZM110 4C150.648 4 175.512 13.7809 191.972 24.489C200.223 29.8567 206.415 35.4911 211.482 40.3567C213.995 42.7696 216.297 45.0582 218.386 46.9719C220.481 48.8904 222.489 50.5533 224.489 51.7254L226.511 48.2746C224.886 47.3217 223.128 45.8908 221.088 44.0222C219.043 42.1488 216.841 39.957 214.252 37.4714C209.117 32.5402 202.715 26.7058 194.153 21.136C176.988 9.96913 151.352 0 110 0V4Z" fill="url(#paint0_linear_264_117)"/>
<defs>
<linearGradient id="paint0_linear_264_117" x1="165.537" y1="2" x2="-5.40653" y2="14.135" gradientUnits="userSpaceOnUse">
<stop stop-color="#33DE72"/>
<stop offset="1" stop-color="#33DE72" stop-opacity="0"/>
</linearGradient>
</defs>
</svg>
